<svg xmlns="http://www.w3.org/2000/svg" viewBox="0 0 153.11 39.16"><defs><style>.cls-1{fill:#fff;}</style></defs><title>Recurso 1</title><g id="Capa_2" data-name="Capa 2"><g id="Capa_1-2" data-name="Capa 1"><path class="cls-1" d="M109.93,39.16l10.54-9.07c-18-9-36.42-11.39-58.55-10.58S20.57,26.12,4.19,36.32c-.77-.4-1.48-.75-2.16-1.12S.68,34.42,0,34C28.29.56,93.44-11.47,140.65,12.76l10.6-9.09,1.86,35.21Zm11.87-4.24,26.72.38-.67-22.78-6.31,5.41C103.81-3.73,49.26.45,15.82,25.56A133.7,133.7,0,0,1,74.06,15.9c20.94,1.06,37.79,4.5,54,13.58Z"/></g></g></svg>