<svg width="363" height="197" viewBox="0 0 363 197" fill="none" xmlns="http://www.w3.org/2000/svg">
<mask id="mask0_778_8108" style="mask-type:alpha" maskUnits="userSpaceOnUse" x="0" y="0" width="363" height="197">
<path d="M362.219 0.279297H0.21875V196.279H362.219V0.279297Z" fill="#D9D9D9"/>
</mask>
<g mask="url(#mask0_778_8108)">
<path d="M34.1829 136.708L34.2585 136.677C34.7196 136.49 35.2449 136.713 35.4335 137.174C35.6203 137.633 35.4003 138.157 34.9429 138.345L34.866 138.377C34.0869 138.697 33.3145 139.081 32.5756 139.517C32.1464 139.77 31.5942 139.627 31.3419 139.197C31.0887 138.769 31.2307 138.216 31.6604 137.964C32.4732 137.486 33.3224 137.063 34.1835 136.709L34.1829 136.708ZM38.2487 135.566C38.3128 135.539 38.3813 135.52 38.453 135.509C39.4144 135.357 40.3931 135.285 41.3587 135.289C41.8558 135.291 42.2572 135.697 42.2555 136.194C42.2538 136.691 41.8486 137.093 41.351 137.09C40.4811 137.085 39.6017 137.151 38.7346 137.288C38.2436 137.365 37.7824 137.029 37.7042 136.538C37.6375 136.118 37.8733 135.72 38.25 135.565L38.2487 135.566ZM28.4413 140.377C28.7809 140.237 29.1862 140.315 29.4488 140.602C29.7847 140.97 29.7603 141.539 29.3941 141.875C28.8895 142.338 28.4004 142.834 27.944 143.352C27.8202 143.491 27.6977 143.637 27.5771 143.784C27.2632 144.171 26.6964 144.229 26.3094 143.916C25.9224 143.603 25.8634 143.035 26.176 142.649C26.3124 142.482 26.4512 142.317 26.592 142.157C27.0909 141.594 27.6237 141.051 28.1755 140.546C28.256 140.473 28.3452 140.416 28.44 140.377H28.4413ZM45.1252 135.888C45.2982 135.817 45.496 135.798 45.6906 135.848C46.6243 136.088 47.5499 136.406 48.4454 136.796C48.9022 136.995 49.1119 137.524 48.9136 137.981C48.7152 138.437 48.1854 138.646 47.7286 138.447C46.9211 138.096 46.0865 137.81 45.2449 137.594C44.7622 137.47 44.4713 136.98 44.5944 136.497C44.668 136.211 44.8702 135.993 45.1239 135.888H45.1252ZM24.4009 145.931C24.6175 145.842 24.8689 145.837 25.1017 145.936C25.5592 146.133 25.7695 146.664 25.5724 147.12C25.2328 147.906 24.9516 148.743 24.7345 149.604C24.6127 150.086 24.1234 150.379 23.6412 150.256C23.159 150.134 22.8656 149.644 22.9874 149.162C23.2287 148.207 23.5408 147.278 23.9191 146.405C24.0155 146.181 24.1933 146.016 24.4035 145.93L24.4009 145.931ZM51.3389 138.86C51.6195 138.744 51.9506 138.773 52.2145 138.966C52.9762 139.522 53.7206 140.145 54.429 140.819C54.7895 141.162 54.803 141.733 54.46 142.093C54.1169 142.453 53.5466 142.465 53.186 142.122C52.5341 141.501 51.8508 140.928 51.1522 140.419C50.7507 140.126 50.6622 139.563 50.9548 139.16C51.0562 139.021 51.1897 138.92 51.3384 138.859L51.3389 138.86ZM22.9477 152.661C23.063 152.614 23.1897 152.59 23.3218 152.594C23.819 152.611 24.2085 153.028 24.1918 153.525C24.1623 154.398 24.1904 155.29 24.2761 156.177C24.3229 156.672 23.9604 157.112 23.4654 157.158C22.9704 157.204 22.5298 156.841 22.4829 156.347C22.3897 155.384 22.3592 154.413 22.3912 153.463C22.4039 153.098 22.6312 152.791 22.949 152.661H22.9477ZM56.2122 143.752C56.5838 143.599 57.0252 143.71 57.2768 144.047L57.3771 144.181C57.9144 144.909 58.4193 145.664 58.874 146.424C59.1297 146.851 58.9922 147.404 58.5653 147.659C58.1377 147.916 57.5853 147.776 57.3296 147.349C56.903 146.638 56.4319 145.933 55.9286 145.251L55.8345 145.125C55.5364 144.726 55.6182 144.161 56.017 143.864C56.0788 143.818 56.1443 143.78 56.2135 143.752H56.2122ZM23.8177 159.508C23.8472 159.495 23.8784 159.484 23.9108 159.475C24.3888 159.337 24.8887 159.611 25.0275 160.089C25.2397 160.817 25.4927 161.539 25.7799 162.235C25.8286 162.353 25.8778 162.472 25.9303 162.588C26.1291 163.045 25.9192 163.575 25.463 163.773C25.0108 163.974 24.4761 163.761 24.2773 163.304C24.2218 163.177 24.1671 163.048 24.1142 162.92C23.8021 162.164 23.5281 161.381 23.298 160.591C23.168 160.145 23.3987 159.68 23.8177 159.508ZM59.6013 149.777C59.6013 149.777 59.609 149.773 59.6129 149.772C60.0755 149.589 60.5993 149.816 60.7828 150.279C61.1341 151.162 61.4402 152.078 61.6938 152.998C61.8258 153.477 61.5457 153.972 61.0637 154.104C60.5843 154.235 60.0882 153.952 59.9563 153.473C59.7206 152.615 59.4353 151.764 59.1088 150.94C58.9269 150.481 59.1477 149.963 59.6026 149.776L59.6013 149.777ZM26.7866 165.738C27.1672 165.581 27.6203 165.702 27.8672 166.053C28.3789 166.781 28.9397 167.468 29.5371 168.095C29.8809 168.455 29.8658 169.025 29.5053 169.368C29.1448 169.712 28.5747 169.696 28.231 169.335C27.5736 168.643 26.9544 167.887 26.3919 167.088C26.1056 166.681 26.2034 166.119 26.61 165.833C26.6657 165.794 26.7246 165.762 26.7848 165.737L26.7866 165.738ZM61.2593 156.48C61.3362 156.449 61.4173 156.427 61.5037 156.419C61.9981 156.364 62.444 156.722 62.4996 157.216C62.6033 158.146 62.662 159.105 62.6765 160.066C62.684 160.564 62.2859 160.972 61.7881 160.979C61.2903 160.986 60.8815 160.587 60.874 160.09C60.861 159.187 60.805 158.285 60.7089 157.413C60.6632 157.004 60.8985 156.63 61.2598 156.482L61.2593 156.48ZM31.7199 170.558C31.9966 170.444 32.3223 170.47 32.5849 170.656C33.3181 171.176 34.0807 171.676 34.8493 172.144C35.2751 172.402 35.4109 172.956 35.1533 173.381C34.8957 173.807 34.3414 173.942 33.9156 173.684C33.1099 173.195 32.3118 172.671 31.5443 172.126C31.138 171.839 31.042 171.276 31.3287 170.87C31.4311 170.726 31.5674 170.62 31.7199 170.558ZM61.2171 163.39C61.3542 163.334 61.5064 163.31 61.6641 163.329C62.1585 163.387 62.5128 163.835 62.4559 164.329C62.3497 165.248 62.2056 166.192 62.0244 167.133C61.9307 167.621 61.4587 167.941 60.9701 167.847C60.4815 167.752 60.1607 167.28 60.2545 166.792C60.4263 165.894 60.564 164.996 60.6658 164.121C60.7051 163.784 60.9255 163.512 61.2177 163.392L61.2171 163.39ZM37.6986 174.046C37.9254 173.953 38.1884 173.951 38.427 174.064C39.2349 174.445 40.0709 174.808 40.9147 175.138C41.3778 175.319 41.6072 175.842 41.4252 176.306C41.2444 176.768 40.7213 176.997 40.2577 176.814C39.3776 176.469 38.5036 176.091 37.659 175.693C37.2088 175.481 37.0152 174.943 37.2286 174.494C37.3289 174.284 37.4992 174.13 37.6991 174.047L37.6986 174.046ZM44.1812 176.471C44.3618 176.397 44.5681 176.381 44.7703 176.439C45.6297 176.684 46.5154 176.908 47.4044 177.105C47.8908 177.212 48.1973 177.693 48.0906 178.179C47.984 178.665 47.5032 178.971 47.0167 178.864C46.0916 178.66 45.1698 178.427 44.2776 178.172C43.7989 178.036 43.521 177.538 43.6576 177.059C43.7359 176.784 43.9344 176.575 44.1817 176.473L44.1812 176.471ZM59.8138 170.162C59.997 170.086 60.2064 170.071 60.4109 170.13C60.8887 170.271 61.1614 170.772 61.0225 171.249C60.7642 172.13 60.4709 173.032 60.1523 173.93C59.986 174.399 59.4711 174.644 59.002 174.477C58.5329 174.31 58.2873 173.795 58.4536 173.327C58.7612 172.46 59.0436 171.589 59.294 170.74C59.3734 170.467 59.5716 170.261 59.8151 170.161L59.8138 170.162ZM139.755 139.055C140.092 138.917 140.495 138.992 140.759 139.276C141.098 139.641 141.077 140.211 140.713 140.549C140.037 141.176 139.347 141.808 138.662 142.425C138.293 142.758 137.723 142.729 137.389 142.36C137.056 141.99 137.084 141.421 137.453 141.088C138.132 140.476 138.816 139.849 139.486 139.228C139.567 139.152 139.659 139.095 139.755 139.055ZM50.9629 177.871C51.1039 177.813 51.2622 177.79 51.4241 177.812C52.3094 177.931 53.2217 178.027 54.1338 178.102C54.6301 178.142 54.9996 178.576 54.96 179.072C54.9204 179.568 54.4866 179.937 53.9904 179.897C53.0474 179.82 52.1049 179.719 51.1881 179.597C50.6949 179.532 50.3473 179.078 50.4135 178.585C50.4567 178.254 50.6759 177.989 50.9642 177.871H50.9629ZM134.6 143.674C134.948 143.53 135.365 143.617 135.625 143.917C135.952 144.294 135.91 144.863 135.533 145.187C134.835 145.791 134.123 146.397 133.416 146.991C133.036 147.311 132.466 147.26 132.147 146.879C131.826 146.498 131.876 145.929 132.257 145.61C132.958 145.022 133.663 144.422 134.354 143.824C134.429 143.759 134.513 143.708 134.6 143.672V143.674ZM57.4258 176.658C57.6437 176.568 57.8982 176.564 58.1308 176.666C58.5863 176.865 58.7952 177.397 58.5951 177.853C58.5325 177.995 58.4693 178.14 58.4042 178.283C59.2424 178.288 60.0987 178.274 60.9525 178.244C61.4504 178.226 61.8686 178.615 61.8862 179.111C61.9043 179.609 61.5168 180.025 61.0194 180.044C60.0771 180.078 59.1307 180.091 58.2088 180.083C58.0025 180.081 57.8131 180.011 57.6607 179.892C57.5794 180.062 57.4976 180.23 57.4158 180.399C57.1983 180.845 56.659 181.031 56.2104 180.812C55.7637 180.594 55.5771 180.055 55.7953 179.607C56.2004 178.776 56.5876 177.942 56.9437 177.127C57.0406 176.905 57.2177 176.742 57.4253 176.656L57.4258 176.658ZM129.281 148.103C129.641 147.955 130.07 148.054 130.326 148.373C130.638 148.76 130.577 149.328 130.19 149.639C129.471 150.215 128.738 150.795 128.008 151.362C127.615 151.668 127.05 151.597 126.744 151.205C126.438 150.812 126.509 150.246 126.9 149.941C127.622 149.379 128.35 148.805 129.06 148.234C129.128 148.179 129.203 148.135 129.281 148.103ZM123.804 152.332C124.175 152.179 124.618 152.29 124.871 152.629C125.167 153.029 125.084 153.593 124.685 153.89C123.941 154.441 123.186 154.993 122.439 155.53C122.035 155.819 121.472 155.729 121.182 155.323C120.891 154.92 120.982 154.356 121.387 154.067C122.126 153.536 122.874 152.989 123.61 152.443C123.672 152.397 123.736 152.361 123.804 152.333V152.332ZM64.7906 178.032C64.8701 177.999 64.9556 177.978 65.0463 177.969C65.941 177.881 66.8549 177.775 67.7646 177.651C68.2573 177.585 68.7116 177.93 68.7799 178.422C68.8468 178.915 68.5025 179.37 68.0097 179.436C67.0775 179.563 66.1391 179.672 65.2226 179.761C64.7268 179.809 64.2867 179.447 64.238 178.952C64.1983 178.547 64.4332 178.179 64.7906 178.032ZM118.168 156.347C118.553 156.189 119.009 156.316 119.254 156.673C119.534 157.083 119.43 157.644 119.019 157.925C118.256 158.446 117.478 158.968 116.707 159.477C116.293 159.751 115.733 159.637 115.459 159.22C115.185 158.805 115.298 158.246 115.715 157.973C116.477 157.47 117.247 156.953 118.003 156.436C118.056 156.399 118.111 156.37 118.168 156.347ZM54.3362 182.852C54.5809 182.751 54.8688 182.758 55.1185 182.898C55.5529 183.141 55.7103 183.689 55.4682 184.123C55.0239 184.921 54.5522 185.735 54.0666 186.545C53.8108 186.971 53.2576 187.109 52.831 186.853C52.4045 186.596 52.2661 186.043 52.5219 185.617C52.9976 184.823 53.46 184.026 53.8944 183.245C53.9979 183.06 54.1555 182.926 54.3375 182.851L54.3362 182.852ZM112.369 160.136C112.767 159.972 113.239 160.114 113.476 160.493C113.74 160.915 113.611 161.471 113.189 161.734C112.4 162.227 111.6 162.716 110.812 163.188C110.387 163.444 109.833 163.307 109.576 162.88C109.319 162.454 109.456 161.901 109.883 161.645C110.662 161.177 111.452 160.693 112.233 160.206C112.277 160.178 112.321 160.156 112.368 160.137L112.369 160.136ZM71.6457 177.042C71.7008 177.019 71.7593 177.001 71.8218 176.989C72.7073 176.821 73.6108 176.635 74.508 176.434C74.9939 176.326 75.4753 176.631 75.5844 177.117C75.6935 177.603 75.3883 178.084 74.9025 178.192C73.987 178.396 73.0644 178.587 72.1594 178.759C71.6703 178.852 71.1988 178.53 71.1048 178.041C71.0232 177.615 71.2583 177.2 71.6452 177.041L71.6457 177.042ZM106.415 163.674C106.829 163.503 107.316 163.665 107.542 164.065C107.787 164.498 107.635 165.047 107.202 165.291C106.392 165.749 105.571 166.202 104.761 166.639C104.322 166.875 103.777 166.712 103.541 166.274C103.305 165.836 103.466 165.29 103.904 165.055C104.703 164.623 105.515 164.175 106.314 163.723C106.347 163.705 106.381 163.688 106.415 163.674ZM78.3952 175.484C78.4298 175.47 78.4655 175.458 78.5029 175.447C79.3753 175.211 80.264 174.957 81.1422 174.691C81.6182 174.548 82.1221 174.817 82.2661 175.293C82.4101 175.769 82.1425 176.272 81.6652 176.416C80.7693 176.686 79.8647 176.945 78.9764 177.186C78.4965 177.316 78.0017 177.033 77.8698 176.553C77.7495 176.11 77.9801 175.655 78.394 175.485L78.3952 175.484ZM100.305 166.937C100.737 166.759 101.239 166.943 101.452 167.366C101.676 167.81 101.498 168.352 101.053 168.575C100.222 168.993 99.3792 169.407 98.5492 169.804C98.1024 170.018 97.5628 169.829 97.3473 169.38C97.1323 168.932 97.321 168.394 97.7704 168.179C98.5888 167.787 99.4202 167.379 100.242 166.966C100.264 166.955 100.284 166.946 100.305 166.937ZM85.015 173.441C85.0317 173.435 85.0471 173.428 85.0643 173.423C85.9185 173.128 86.789 172.815 87.6514 172.493C88.1178 172.319 88.6365 172.556 88.811 173.022C88.9855 173.488 88.7429 174.008 88.2835 174.18C87.4069 174.508 86.5231 174.825 85.6547 175.125C85.1849 175.287 84.6715 175.038 84.509 174.568C84.3516 174.115 84.5786 173.622 85.0156 173.443L85.015 173.441ZM94.0399 169.893C94.4909 169.708 95.0098 169.916 95.2081 170.363C95.4095 170.819 95.2032 171.35 94.748 171.551C93.8954 171.926 93.0315 172.295 92.1817 172.647L92.1804 172.648C91.7217 172.836 91.1955 172.618 91.0043 172.159C90.8144 171.699 91.0315 171.172 91.4915 170.982C92.3303 170.636 93.1814 170.272 94.0212 169.903C94.0276 169.9 94.0353 169.897 94.0417 169.894L94.0399 169.893Z" fill="url(#paint0_linear_778_8108)"/>
<path d="M361.719 0.714844L317.918 21.3345L321.032 32.3114L361.719 0.714844Z" fill="white"/>
<path d="M320.993 33.1009C320.923 33.0976 320.854 33.0851 320.787 33.0623C320.541 32.9813 320.353 32.7824 320.282 32.5309L317.167 21.5551C317.061 21.1802 317.241 20.7803 317.591 20.6156L361.391 -0.00415794C361.753 -0.174078 362.183 -0.042796 362.388 0.303058C362.593 0.647755 362.509 1.09502 362.193 1.34128L321.507 32.938C321.358 33.0529 321.176 33.1094 320.994 33.1009H320.993ZM318.853 21.7644L321.467 30.9761L355.611 4.45947L318.853 21.7644Z" fill="black"/>
<path d="M303.881 23.0779L317.917 21.3345L361.718 0.714844L303.881 23.0779Z" fill="white"/>
<path d="M303.842 23.8676C303.502 23.8518 303.206 23.6119 303.122 23.2671C303.028 22.8788 303.235 22.479 303.605 22.3361L361.442 -0.025842C361.836 -0.178025 362.276 0.012907 362.439 0.405505C362.602 0.798104 362.427 1.2516 362.045 1.43219L318.244 22.053C318.169 22.0878 318.09 22.1108 318.009 22.121L303.974 23.8633C303.93 23.8682 303.886 23.8708 303.842 23.8688V23.8676ZM341.293 9.45724L310.144 21.5019L317.703 20.5631L341.293 9.45724Z" fill="black"/>
<path d="M321.031 32.3114L324.543 23.5256L361.718 0.714844L321.031 32.3114Z" fill="white"/>
<path d="M320.992 33.1012C320.838 33.094 320.686 33.0406 320.557 32.9418C320.277 32.7258 320.175 32.3478 320.307 32.0163L323.818 23.2304C323.882 23.071 323.995 22.9371 324.139 22.8486L361.314 0.036757C361.669 -0.18103 362.13 -0.08077 362.364 0.266409C362.597 0.613588 362.521 1.08558 362.19 1.34161L321.505 32.9382C321.354 33.0553 321.171 33.1095 320.992 33.1012ZM325.169 24.0643L322.829 29.9182L349.939 8.86471L325.169 24.0643Z" fill="black"/>
<path d="M361.718 0.714844L324.543 23.5256L335.939 40.1489L361.718 0.714844Z" fill="white"/>
<path d="M335.901 40.9399C335.66 40.9287 335.437 40.8047 335.298 40.6022L323.9 23.9788C323.778 23.7992 323.734 23.5768 323.779 23.362C323.825 23.1484 323.955 22.9619 324.14 22.8487L361.315 0.0368521C361.628 -0.155072 362.03 -0.102751 362.283 0.164118C362.535 0.430986 362.571 0.839741 362.369 1.14931L336.592 40.5834C336.448 40.8029 336.207 40.9367 335.948 40.9398C335.932 40.939 335.917 40.9395 335.901 40.9387V40.9399ZM325.66 23.7636L335.926 38.7386L359.148 3.21495L325.661 23.7625L325.66 23.7636Z" fill="black"/>
<path d="M212.221 35.237L212.296 35.2042C212.752 35.0075 213.282 35.2191 213.481 35.6755C213.678 36.1311 213.469 36.6595 213.016 36.8576L212.94 36.8909C212.168 37.2284 211.404 37.6288 210.675 38.0808C210.252 38.3431 209.697 38.2121 209.435 37.7878C209.172 37.3654 209.302 36.8094 209.726 36.5484C210.528 36.0524 211.368 35.6112 212.221 35.2382V35.237ZM216.26 34.0065C216.324 33.9788 216.392 33.9581 216.463 33.945C217.421 33.7729 218.398 33.6788 219.364 33.6622C219.861 33.6537 220.271 34.0508 220.28 34.5476C220.289 35.0445 219.893 35.4552 219.395 35.4624C218.526 35.4765 217.648 35.5622 216.784 35.7174C216.295 35.8057 215.826 35.4794 215.737 34.9903C215.662 34.5725 215.889 34.1691 216.262 34.006L216.26 34.0065ZM206.561 39.0306C206.897 38.8836 207.304 38.9523 207.573 39.2342C207.917 39.5938 207.905 40.1634 207.546 40.5078C207.052 40.9812 206.574 41.4882 206.129 42.0156C206.008 42.1577 205.889 42.3066 205.771 42.4563C205.466 42.85 204.901 42.9201 204.507 42.6157C204.113 42.3112 204.042 41.7448 204.346 41.3516C204.478 41.1816 204.614 41.0136 204.751 40.8507C205.237 40.2765 205.758 39.722 206.299 39.2057C206.378 39.1304 206.466 39.0722 206.559 39.0312L206.561 39.0306ZM223.142 34.1784C223.314 34.1035 223.511 34.0808 223.707 34.1269C224.646 34.3459 225.578 34.6434 226.482 35.0139C226.943 35.2027 227.164 35.7279 226.976 36.1884C226.787 36.649 226.262 36.8695 225.801 36.6807C224.986 36.347 224.145 36.0791 223.299 35.8816C222.814 35.7684 222.513 35.2845 222.625 34.7995C222.692 34.5114 222.89 34.2889 223.141 34.179L223.142 34.1784ZM202.643 44.6712C202.857 44.5774 203.109 44.5674 203.344 44.6614C203.805 44.8484 204.027 45.3748 203.84 45.8348C203.518 46.6279 203.255 47.4705 203.057 48.3364C202.946 48.8208 202.463 49.1241 201.978 49.0122C201.493 48.9004 201.189 48.4175 201.301 47.9331C201.521 46.9728 201.812 46.0374 202.172 45.1557C202.263 44.9296 202.437 44.7611 202.645 44.6701L202.643 44.6712ZM229.42 37.0143C229.698 36.8928 230.029 36.9143 230.297 37.1012C231.071 37.6405 231.829 38.2473 232.552 38.9057C232.92 39.2411 232.946 39.8107 232.611 40.1781C232.276 40.5455 231.706 40.5707 231.338 40.2353C230.672 39.6289 229.977 39.0707 229.267 38.5774C228.859 38.2927 228.758 37.7316 229.042 37.3231C229.141 37.1817 229.272 37.0774 229.419 37.0131L229.42 37.0143ZM201.337 51.4318C201.452 51.3818 201.578 51.3554 201.71 51.3567C202.207 51.3631 202.606 51.7714 202.6 52.2687C202.59 53.1417 202.637 54.0333 202.742 54.9179C202.8 55.4116 202.447 55.8594 201.953 55.9164C201.46 55.9734 201.011 55.6202 200.953 55.1265C200.839 54.1658 200.787 53.1958 200.799 52.2453C200.803 51.8801 201.024 51.5688 201.339 51.4312L201.337 51.4318ZM234.399 41.7991C234.767 41.6381 235.211 41.7392 235.47 42.0708L235.573 42.2027C236.126 42.9187 236.647 43.6622 237.119 44.4124C237.384 44.8337 237.258 45.3893 236.837 45.6536C236.415 45.9198 235.86 45.7919 235.595 45.3706C235.153 44.6696 234.666 43.9745 234.148 43.3037L234.051 43.1796C233.745 42.7872 233.814 42.2212 234.206 41.9151C234.267 41.8674 234.332 41.8285 234.4 41.7985L234.399 41.7991ZM202.357 58.2576C202.386 58.2449 202.417 58.2328 202.449 58.2233C202.924 58.0747 203.43 58.3378 203.579 58.8127C203.807 59.5361 204.076 60.2523 204.379 60.9417C204.43 61.0585 204.482 61.1765 204.537 61.2917C204.745 61.7436 204.547 62.2781 204.095 62.4862C203.648 62.697 203.108 62.4955 202.9 62.0436C202.841 61.9178 202.784 61.7901 202.728 61.6631C202.4 60.9141 202.109 60.1365 201.861 59.352C201.722 58.9092 201.942 58.4391 202.357 58.2576ZM237.919 47.7482C237.919 47.7482 237.927 47.7449 237.931 47.7432C238.389 47.5503 238.918 47.7656 239.111 48.2241C239.482 49.1001 239.808 50.0091 240.082 50.9228C240.224 51.3992 239.955 51.8997 239.476 52.0425C239 52.1842 238.497 51.912 238.355 51.4356C238.101 50.583 237.797 49.7384 237.452 48.9222C237.26 48.4674 237.47 47.9447 237.92 47.7477L237.919 47.7482ZM205.462 64.4217C205.839 64.2569 206.294 64.3679 206.549 64.7136C207.077 65.4301 207.652 66.1044 208.263 66.7179C208.615 67.071 208.612 67.6411 208.259 67.992C207.906 68.343 207.336 68.3396 206.984 67.9865C206.312 67.309 205.677 66.5671 205.097 65.7796C204.801 65.3791 204.887 64.8152 205.287 64.5207C205.342 64.4801 205.4 64.4471 205.46 64.421L205.462 64.4217ZM239.723 54.4142C239.8 54.3809 239.88 54.3577 239.966 54.3473C240.46 54.2815 240.913 54.6294 240.98 55.1223C241.104 56.0501 241.183 57.0078 241.219 57.9682C241.237 58.4655 240.848 58.8822 240.351 58.9C239.853 58.9178 239.436 58.5283 239.417 58.031C239.384 57.1285 239.309 56.228 239.194 55.3584C239.139 54.9511 239.366 54.5719 239.724 54.4154L239.723 54.4142ZM210.499 69.1325C210.774 69.0127 211.1 69.032 211.366 69.212C212.111 69.7157 212.884 70.1992 213.663 70.6501C214.094 70.8988 214.242 71.4499 213.994 71.8807C213.746 72.3116 213.194 72.4587 212.763 72.21C211.947 71.7392 211.137 71.2321 210.358 70.7043C209.946 70.4261 209.837 69.8652 210.115 69.4533C210.214 69.3071 210.348 69.1986 210.499 69.1325ZM239.833 61.3234C239.968 61.264 240.12 61.2371 240.278 61.2527C240.774 61.2993 241.138 61.7394 241.092 62.2346C241.006 63.1558 240.882 64.1025 240.722 65.0472C240.639 65.5374 240.174 65.8677 239.683 65.784C239.193 65.7004 238.862 65.2354 238.945 64.7452C239.097 63.8435 239.215 62.9431 239.297 62.0657C239.329 61.728 239.544 61.4512 239.833 61.3246V61.3234ZM216.553 72.4899C216.778 72.3916 217.041 72.3841 217.282 72.4921C218.098 72.8555 218.941 73.1993 219.792 73.5113C220.259 73.6824 220.5 74.2005 220.328 74.6675C220.158 75.1339 219.64 75.374 219.172 75.2016C218.285 74.8754 217.403 74.5166 216.55 74.1375C216.095 73.9354 215.889 73.4018 216.093 72.9482C216.189 72.7354 216.355 72.5777 216.554 72.4911L216.553 72.4899ZM223.087 74.7732C223.266 74.6949 223.472 74.6745 223.675 74.7278C224.54 74.9536 225.43 75.1589 226.323 75.3359C226.812 75.4325 227.129 75.9067 227.033 76.395C226.937 76.8833 226.463 77.1995 225.974 77.1029C225.045 76.9191 224.118 76.7069 223.221 76.4714C222.739 76.346 222.45 75.8534 222.577 75.3716C222.649 75.0949 222.843 74.8815 223.088 74.7744L223.087 74.7732ZM238.578 68.1238C238.759 68.0444 238.968 68.0242 239.174 68.0795C239.655 68.2097 239.939 68.7046 239.81 69.1844C239.571 70.0711 239.298 70.9789 238.999 71.8842C238.843 72.3564 238.333 72.6124 237.861 72.4559C237.388 72.2994 237.131 71.7898 237.287 71.3176C237.576 70.444 237.839 69.5679 238.071 68.7131C238.144 68.4389 238.338 68.2287 238.579 68.1232L238.578 68.1238ZM317.818 35.2805C318.152 35.1345 318.557 35.2013 318.827 35.4795C319.174 35.8362 319.166 36.4072 318.809 36.7523C318.146 37.3945 317.471 38.0408 316.8 38.6732C316.438 39.0144 315.868 38.9974 315.526 38.6354C315.184 38.2734 315.2 37.7035 315.562 37.3623C316.227 36.7358 316.897 36.0947 317.553 35.4585C317.633 35.3813 317.723 35.3221 317.818 35.2805ZM229.898 76.0247C230.038 75.9636 230.195 75.937 230.358 75.9553C231.245 76.0545 232.16 76.1314 233.073 76.186C233.57 76.2153 233.949 76.6412 233.92 77.138C233.892 77.6347 233.466 78.0129 232.969 77.9836C232.025 77.9274 231.08 77.8471 230.161 77.7451C229.666 77.6904 229.309 77.2445 229.364 76.7497C229.4 76.4178 229.614 76.149 229.899 76.0241L229.898 76.0247ZM312.766 40.01C313.111 39.8591 313.529 39.9365 313.796 40.2313C314.131 40.601 314.102 41.1703 313.732 41.503C313.047 42.1216 312.349 42.7433 311.655 43.3521C311.282 43.6803 310.711 43.6422 310.384 43.2679C310.055 42.8942 310.092 42.3241 310.466 41.9972C311.153 41.3942 311.845 40.7784 312.524 40.1657C312.597 40.0988 312.68 40.0459 312.766 40.0082V40.01ZM236.333 74.6702C236.549 74.5759 236.803 74.566 237.038 74.6631C237.497 74.8525 237.718 75.3795 237.528 75.8393C237.468 75.9833 237.408 76.1291 237.346 76.2742C238.185 76.2603 239.04 76.2282 239.893 76.1791C240.391 76.1508 240.817 76.5301 240.846 77.0261C240.875 77.5233 240.496 77.9474 240 77.977C239.058 78.0315 238.112 78.0652 237.19 78.0778C236.984 78.0802 236.793 78.0139 236.638 77.8986C236.561 78.0702 236.483 78.2405 236.405 78.4108C236.197 78.8617 235.662 79.0593 235.209 78.8504C234.757 78.6423 234.559 78.1071 234.767 77.6544C235.154 76.8151 235.523 75.9729 235.861 75.1503C235.953 74.9255 236.127 74.7588 236.332 74.6689L236.333 74.6702ZM307.545 44.5541C307.902 44.3982 308.333 44.488 308.596 44.8013C308.916 45.182 308.867 45.7509 308.487 46.07C307.781 46.6615 307.061 47.2578 306.344 47.8406C305.958 48.1545 305.391 48.0968 305.077 47.7108C304.762 47.3248 304.82 46.7576 305.205 46.4442C305.915 45.866 306.629 45.2768 307.327 44.6905C307.394 44.6338 307.468 44.588 307.545 44.5541ZM302.162 48.9018C302.53 48.7409 302.975 48.8426 303.235 49.1755C303.54 49.5685 303.47 50.1351 303.077 50.4399C302.346 51.0077 301.602 51.5762 300.868 52.129C300.47 52.4267 299.905 52.3486 299.606 51.9497C299.306 51.5527 299.385 50.9872 299.784 50.6889C300.511 50.1425 301.247 49.5787 301.97 49.0173C302.031 48.9695 302.095 48.9325 302.162 48.9031V48.9018ZM243.726 75.8835C243.805 75.8491 243.89 75.8256 243.98 75.8147C244.873 75.7075 245.784 75.5814 246.691 75.4377C247.182 75.3607 247.644 75.696 247.723 76.1864C247.8 76.6775 247.466 77.1398 246.975 77.2169C246.046 77.3644 245.11 77.4936 244.196 77.6028C243.701 77.6616 243.253 77.3097 243.194 76.8153C243.145 76.4113 243.372 76.0384 243.726 75.8835ZM296.615 53.0394C296.997 52.8724 297.455 52.9897 297.708 53.3409C297.997 53.7454 297.905 54.3077 297.501 54.5978C296.749 55.1353 295.982 55.6747 295.224 56.2001C294.815 56.4831 294.253 56.3809 293.97 55.9705C293.686 55.5618 293.788 55 294.198 54.7178C294.949 54.1987 295.707 53.6646 296.452 53.1316C296.504 53.0939 296.56 53.0633 296.616 53.0389L296.615 53.0394ZM233.379 80.9301C233.622 80.8241 233.91 80.8253 234.163 80.9599C234.602 81.1929 234.771 81.7377 234.539 82.1768C234.112 82.9837 233.659 83.8084 233.191 84.6287C232.944 85.0602 232.394 85.2099 231.962 84.963C231.53 84.7162 231.38 84.1661 231.626 83.7346C232.084 82.9306 232.529 82.1234 232.946 81.3328C233.046 81.1455 233.2 81.0083 233.381 80.9295L233.379 80.9301ZM290.9 56.9537C291.295 56.7811 291.77 56.9124 292.015 57.2867C292.288 57.7028 292.171 58.2608 291.755 58.5334C290.977 59.043 290.189 59.5495 289.411 60.0393C288.992 60.3043 288.434 60.1788 288.168 59.758C287.902 59.3373 288.027 58.7816 288.448 58.5161C289.217 58.0315 289.996 57.5306 290.766 57.0262C290.809 56.9981 290.853 56.9743 290.899 56.9543L290.9 56.9537ZM250.558 74.7443C250.612 74.7205 250.67 74.7011 250.732 74.6876C251.614 74.5004 252.513 74.2949 253.406 74.0741C253.889 73.9551 254.377 74.2502 254.497 74.7335C254.617 75.2168 254.322 75.7041 253.839 75.8231C252.928 76.0473 252.01 76.258 251.109 76.4492C250.622 76.5531 250.143 76.2418 250.039 75.7549C249.948 75.3302 250.174 74.9107 250.557 74.7431L250.558 74.7443ZM285.026 60.6203C285.436 60.4411 285.926 60.5916 286.161 60.9866C286.415 61.4141 286.275 61.9672 285.847 62.2206C285.048 62.6956 284.237 63.1668 283.437 63.6207C283.003 63.8663 282.455 63.7158 282.209 63.2831C281.963 62.8504 282.112 62.3009 282.545 62.0559C283.334 61.6064 284.136 61.1409 284.926 60.6716C284.958 60.6528 284.992 60.6353 285.026 60.6203ZM257.271 73.0395C257.306 73.0245 257.341 73.012 257.378 73.0003C258.245 72.7453 259.128 72.4714 260 72.1869C260.473 72.0332 260.983 72.2915 261.137 72.7642C261.292 73.2369 261.035 73.7454 260.561 73.8997C259.671 74.1888 258.773 74.4682 257.89 74.7285C257.413 74.869 256.912 74.5962 256.769 74.1198C256.64 73.6788 256.86 73.2193 257.27 73.04L257.271 73.0395ZM278.989 64.016C279.417 63.829 279.922 64.0015 280.145 64.42C280.378 64.8595 280.212 65.4044 279.773 65.6373C278.95 66.0739 278.117 66.5062 277.296 66.9211C276.854 67.1446 276.311 66.9677 276.085 66.523C275.861 66.0796 276.037 65.5378 276.482 65.3131C277.292 64.9032 278.114 64.4772 278.926 64.0463C278.947 64.0356 278.967 64.0255 278.989 64.016ZM263.845 70.8527C263.861 70.8455 263.877 70.8388 263.894 70.8329C264.741 70.5198 265.605 70.1878 266.46 69.8472C266.922 69.6632 267.446 69.8881 267.631 70.3506C267.815 70.813 267.584 71.3378 267.129 71.5203C266.26 71.8669 265.383 72.2033 264.521 72.5224C264.055 72.6944 263.536 72.4567 263.364 71.9906C263.196 71.5402 263.413 71.0432 263.845 70.854V70.8527ZM272.79 67.1087C273.237 66.9134 273.76 67.1097 273.968 67.5529C274.179 68.0037 273.985 68.5397 273.534 68.7503C272.69 69.1436 271.834 69.5313 270.992 69.9023L270.991 69.9028C270.537 70.1015 270.006 69.8948 269.805 69.4396C269.605 68.9838 269.81 68.4522 270.266 68.2529C271.097 67.8882 271.94 67.506 272.771 67.1183C272.778 67.1155 272.785 67.1122 272.792 67.1094L272.79 67.1087Z" fill="url(#paint1_linear_778_8108)"/>
<path d="M250.217 137.388L250.143 137.421C249.686 137.618 249.156 137.406 248.957 136.95C248.76 136.494 248.969 135.966 249.422 135.767L249.498 135.734C250.27 135.397 251.034 134.996 251.763 134.544C252.186 134.282 252.742 134.413 253.003 134.837C253.266 135.26 253.136 135.816 252.712 136.077C251.91 136.573 251.07 137.014 250.217 137.387V137.388ZM246.178 138.619C246.114 138.646 246.046 138.667 245.975 138.68C245.017 138.852 244.04 138.946 243.074 138.963C242.577 138.971 242.167 138.574 242.158 138.077C242.149 137.581 242.545 137.17 243.043 137.163C243.913 137.149 244.79 137.063 245.654 136.908C246.143 136.819 246.612 137.146 246.701 137.635C246.777 138.053 246.55 138.456 246.176 138.619H246.178ZM255.877 133.594C255.541 133.741 255.134 133.673 254.865 133.391C254.521 133.031 254.533 132.462 254.892 132.117C255.386 131.644 255.864 131.137 256.309 130.609C256.43 130.467 256.549 130.318 256.667 130.169C256.972 129.775 257.537 129.705 257.931 130.009C258.325 130.314 258.396 130.88 258.092 131.273C257.96 131.443 257.825 131.611 257.687 131.774C257.201 132.349 256.68 132.903 256.139 133.419C256.061 133.495 255.973 133.553 255.879 133.594H255.877ZM239.296 138.447C239.124 138.522 238.927 138.544 238.731 138.498C237.793 138.279 236.86 137.982 235.956 137.611C235.495 137.422 235.274 136.897 235.462 136.437C235.651 135.976 236.176 135.756 236.637 135.944C237.452 136.278 238.293 136.546 239.139 136.743C239.624 136.857 239.926 137.341 239.813 137.826C239.746 138.114 239.548 138.336 239.297 138.446L239.296 138.447ZM259.795 127.954C259.581 128.048 259.329 128.058 259.094 127.964C258.633 127.777 258.411 127.25 258.598 126.79C258.92 125.997 259.183 125.155 259.381 124.289C259.492 123.804 259.975 123.501 260.46 123.613C260.945 123.725 261.249 124.208 261.138 124.692C260.917 125.652 260.626 126.588 260.267 127.469C260.175 127.695 260.001 127.864 259.793 127.955L259.795 127.954ZM233.018 135.611C232.74 135.732 232.409 135.711 232.141 135.524C231.367 134.985 230.609 134.378 229.886 133.719C229.518 133.384 229.492 132.814 229.827 132.447C230.162 132.08 230.732 132.054 231.1 132.39C231.766 132.996 232.461 133.554 233.171 134.048C233.579 134.332 233.68 134.893 233.396 135.302C233.298 135.443 233.166 135.548 233.019 135.612L233.018 135.611ZM261.101 121.193C260.986 121.243 260.86 121.27 260.728 121.268C260.231 121.262 259.832 120.854 259.838 120.356C259.848 119.483 259.801 118.592 259.696 117.707C259.638 117.213 259.991 116.766 260.485 116.709C260.979 116.652 261.427 117.005 261.485 117.499C261.599 118.459 261.651 119.429 261.639 120.38C261.635 120.745 261.414 121.056 261.099 121.194L261.101 121.193ZM228.039 130.826C227.671 130.987 227.227 130.886 226.968 130.554L226.865 130.422C226.312 129.706 225.791 128.963 225.319 128.213C225.055 127.791 225.18 127.236 225.601 126.971C226.023 126.705 226.578 126.833 226.843 127.254C227.285 127.955 227.772 128.651 228.29 129.321L228.387 129.445C228.694 129.838 228.624 130.404 228.232 130.71C228.171 130.758 228.106 130.797 228.038 130.827L228.039 130.826ZM260.081 114.367C260.052 114.38 260.021 114.392 259.989 114.402C259.514 114.55 259.008 114.287 258.859 113.812C258.631 113.089 258.362 112.373 258.06 111.683C258.008 111.567 257.957 111.449 257.901 111.333C257.693 110.881 257.891 110.347 258.343 110.139C258.79 109.928 259.33 110.13 259.538 110.581C259.597 110.707 259.654 110.835 259.71 110.962C260.038 111.711 260.33 112.489 260.577 113.273C260.717 113.716 260.496 114.186 260.081 114.367ZM224.519 124.877C224.519 124.877 224.511 124.88 224.508 124.882C224.049 125.075 223.52 124.859 223.327 124.401C222.956 123.525 222.63 122.616 222.356 121.702C222.214 121.226 222.483 120.725 222.962 120.583C223.439 120.441 223.941 120.713 224.083 121.189C224.338 122.042 224.641 122.887 224.986 123.703C225.178 124.158 224.969 124.68 224.519 124.877ZM256.976 108.203C256.599 108.368 256.144 108.257 255.889 107.912C255.362 107.195 254.786 106.521 254.175 105.907C253.823 105.554 253.826 104.984 254.179 104.633C254.532 104.282 255.102 104.285 255.454 104.639C256.126 105.316 256.762 106.058 257.341 106.845C257.637 107.246 257.551 107.81 257.151 108.104C257.096 108.145 257.038 108.178 256.978 108.204L256.976 108.203ZM222.715 118.211C222.638 118.244 222.558 118.267 222.472 118.278C221.979 118.344 221.525 117.996 221.458 117.503C221.334 116.575 221.255 115.617 221.219 114.657C221.201 114.16 221.59 113.743 222.087 113.725C222.585 113.707 223.002 114.097 223.021 114.594C223.054 115.497 223.129 116.397 223.244 117.267C223.299 117.674 223.072 118.053 222.714 118.21L222.715 118.211ZM251.939 103.493C251.665 103.612 251.338 103.593 251.072 103.413C250.327 102.909 249.554 102.426 248.775 101.975C248.344 101.726 248.196 101.175 248.444 100.744C248.693 100.314 249.244 100.166 249.675 100.415C250.491 100.886 251.301 101.393 252.08 101.921C252.492 102.199 252.601 102.76 252.323 103.172C252.224 103.318 252.09 103.426 251.939 103.493ZM222.605 111.302C222.47 111.361 222.318 111.388 222.16 111.372C221.664 111.326 221.3 110.886 221.346 110.39C221.433 109.469 221.556 108.523 221.716 107.578C221.799 107.088 222.264 106.757 222.755 106.841C223.245 106.925 223.576 107.39 223.493 107.88C223.341 108.782 223.223 109.682 223.141 110.559C223.109 110.897 222.894 111.174 222.605 111.3V111.302ZM245.885 100.135C245.66 100.233 245.397 100.241 245.156 100.133C244.34 99.7695 243.497 99.4257 242.646 99.1138C242.179 98.9427 241.938 98.4246 242.11 97.9576C242.281 97.4911 242.799 97.2511 243.266 97.4235C244.153 97.7497 245.035 98.1085 245.889 98.4875C246.343 98.6896 246.549 99.2233 246.345 99.6769C246.249 99.8897 246.083 100.047 245.885 100.134V100.135ZM239.351 97.8519C239.172 97.9301 238.966 97.9506 238.763 97.8972C237.898 97.6715 237.008 97.4661 236.115 97.2891C235.626 97.1926 235.309 96.7184 235.405 96.2301C235.501 95.7418 235.975 95.4256 236.464 95.5222C237.393 95.706 238.32 95.9182 239.217 96.1537C239.699 96.279 239.988 96.7717 239.862 97.2535C239.789 97.5302 239.595 97.7435 239.35 97.8506L239.351 97.8519ZM223.86 104.501C223.679 104.581 223.47 104.601 223.264 104.546C222.783 104.415 222.5 103.92 222.628 103.441C222.867 102.554 223.14 101.646 223.439 100.741C223.595 100.269 224.105 100.013 224.577 100.169C225.05 100.326 225.307 100.835 225.151 101.307C224.862 102.181 224.599 103.057 224.367 103.912C224.294 104.186 224.1 104.396 223.859 104.502L223.86 104.501ZM144.62 137.345C144.286 137.491 143.881 137.424 143.611 137.146C143.264 136.789 143.272 136.218 143.629 135.873C144.292 135.231 144.967 134.584 145.639 133.952C146 133.611 146.57 133.628 146.912 133.99C147.254 134.352 147.238 134.922 146.876 135.263C146.211 135.889 145.541 136.53 144.885 137.167C144.806 137.244 144.715 137.303 144.62 137.345ZM232.54 96.6004C232.401 96.6614 232.243 96.688 232.08 96.6697C231.193 96.5706 230.278 96.4937 229.365 96.4391C228.868 96.4097 228.489 95.9838 228.518 95.4871C228.546 94.9904 228.972 94.6121 229.469 94.6415C230.414 94.6976 231.358 94.778 232.277 94.88C232.772 94.9347 233.129 95.3806 233.074 95.8753C233.038 96.2073 232.825 96.4761 232.539 96.6009L232.54 96.6004ZM149.673 132.615C149.327 132.766 148.909 132.689 148.642 132.394C148.307 132.024 148.336 131.455 148.706 131.122C149.391 130.503 150.089 129.882 150.783 129.273C151.157 128.945 151.727 128.983 152.055 129.357C152.383 129.731 152.346 130.301 151.972 130.628C151.285 131.231 150.593 131.847 149.914 132.459C149.841 132.526 149.758 132.579 149.672 132.617L149.673 132.615ZM226.105 97.9548C225.89 98.0492 225.635 98.059 225.4 97.9619C224.941 97.7725 224.72 97.2456 224.91 96.7857C224.97 96.6418 225.03 96.4959 225.092 96.3509C224.254 96.3647 223.398 96.3969 222.545 96.446C222.047 96.4743 221.621 96.0949 221.592 95.599C221.563 95.1017 221.942 94.6776 222.439 94.648C223.38 94.5936 224.326 94.5599 225.248 94.5472C225.454 94.5448 225.645 94.6111 225.8 94.7265C225.877 94.5549 225.955 94.3846 226.034 94.2143C226.241 93.7634 226.776 93.5657 227.23 93.7746C227.681 93.9828 227.879 94.5179 227.671 94.9706C227.284 95.81 226.915 96.6521 226.577 97.4748C226.485 97.6996 226.312 97.8662 226.106 97.9561L226.105 97.9548ZM154.893 128.071C154.536 128.227 154.105 128.137 153.842 127.824C153.522 127.443 153.571 126.874 153.951 126.555C154.657 125.964 155.377 125.367 156.094 124.784C156.48 124.471 157.047 124.528 157.362 124.914C157.676 125.3 157.618 125.867 157.233 126.181C156.523 126.759 155.809 127.348 155.111 127.935C155.044 127.991 154.97 128.037 154.893 128.071ZM160.276 123.723C159.908 123.884 159.463 123.782 159.203 123.45C158.898 123.057 158.968 122.49 159.361 122.185C160.093 121.617 160.836 121.049 161.571 120.496C161.968 120.198 162.533 120.276 162.832 120.675C163.132 121.072 163.053 121.638 162.655 121.936C161.927 122.483 161.191 123.046 160.468 123.608C160.407 123.656 160.343 123.694 160.276 123.723ZM218.712 96.7415C218.634 96.7759 218.549 96.7995 218.458 96.8103C217.566 96.9175 216.654 97.0436 215.747 97.1873C215.256 97.2644 214.794 96.9291 214.715 96.4386C214.638 95.9476 214.972 95.4852 215.463 95.4082C216.392 95.2607 217.328 95.1315 218.243 95.0223C218.737 94.9634 219.185 95.3153 219.245 95.8098C219.293 96.2137 219.066 96.5867 218.712 96.7415ZM165.823 119.586C165.441 119.753 164.983 119.635 164.73 119.284C164.441 118.88 164.533 118.317 164.937 118.027C165.689 117.49 166.456 116.95 167.215 116.425C167.623 116.142 168.185 116.244 168.468 116.655C168.752 117.063 168.65 117.625 168.24 117.907C167.489 118.426 166.731 118.96 165.986 119.493C165.934 119.531 165.879 119.562 165.823 119.586ZM229.059 91.695C228.816 91.801 228.528 91.7998 228.276 91.6651C227.836 91.4321 227.667 90.8873 227.899 90.4483C228.326 89.6414 228.78 88.8166 229.247 87.9964C229.494 87.5648 230.044 87.4151 230.476 87.662C230.908 87.9089 231.058 88.4589 230.812 88.8904C230.354 89.6945 229.909 90.5017 229.492 91.2923C229.392 91.4795 229.238 91.6167 229.057 91.6955L229.059 91.695ZM171.538 115.671C171.143 115.844 170.668 115.713 170.423 115.338C170.15 114.922 170.267 114.364 170.683 114.092C171.461 113.582 172.249 113.076 173.027 112.586C173.446 112.321 174.004 112.446 174.27 112.867C174.536 113.288 174.411 113.843 173.99 114.109C173.221 114.594 172.442 115.094 171.672 115.599C171.629 115.627 171.585 115.651 171.539 115.671H171.538ZM211.88 97.8807C211.826 97.9046 211.768 97.9239 211.706 97.9375C210.824 98.1247 209.925 98.3302 209.032 98.5509C208.549 98.6699 208.061 98.3749 207.941 97.8916C207.821 97.4083 208.116 96.9209 208.599 96.8019C209.51 96.5778 210.428 96.367 211.329 96.1759C211.816 96.0719 212.295 96.3833 212.399 96.8701C212.49 97.2948 212.264 97.7144 211.881 97.882L211.88 97.8807ZM177.412 112.005C177.002 112.184 176.512 112.033 176.277 111.638C176.023 111.211 176.163 110.658 176.591 110.404C177.39 109.929 178.201 109.458 179.001 109.004C179.435 108.759 179.983 108.909 180.229 109.342C180.475 109.775 180.326 110.324 179.893 110.569C179.104 111.019 178.302 111.484 177.512 111.953C177.48 111.972 177.446 111.99 177.412 112.005ZM205.167 99.5856C205.132 99.6006 205.097 99.613 205.06 99.6248C204.193 99.8797 203.31 100.154 202.438 100.438C201.965 100.592 201.455 100.334 201.301 99.8609C201.147 99.3882 201.403 98.8796 201.877 98.7254C202.767 98.4363 203.666 98.1569 204.548 97.8965C205.025 97.7561 205.526 98.0289 205.669 98.5053C205.799 98.9463 205.578 99.4058 205.168 99.585L205.167 99.5856ZM183.449 108.609C183.022 108.796 182.516 108.624 182.293 108.205C182.06 107.766 182.226 107.221 182.666 106.988C183.488 106.551 184.321 106.119 185.142 105.704C185.584 105.48 186.128 105.657 186.353 106.102C186.578 106.545 186.401 107.087 185.956 107.312C185.146 107.722 184.324 108.148 183.512 108.579C183.491 108.589 183.471 108.6 183.449 108.609ZM198.593 101.772C198.577 101.78 198.561 101.786 198.544 101.792C197.697 102.105 196.833 102.437 195.978 102.778C195.516 102.962 194.992 102.737 194.807 102.274C194.623 101.812 194.854 101.287 195.309 101.105C196.179 100.758 197.055 100.422 197.917 100.103C198.383 99.9306 198.902 100.168 199.074 100.634C199.242 101.085 199.026 101.582 198.593 101.771V101.772ZM189.648 105.516C189.201 105.712 188.678 105.515 188.47 105.072C188.259 104.621 188.453 104.085 188.904 103.875C189.748 103.481 190.604 103.094 191.446 102.723L191.447 102.722C191.901 102.524 192.432 102.73 192.633 103.185C192.833 103.641 192.628 104.173 192.172 104.372C191.341 104.737 190.498 105.119 189.667 105.507C189.66 105.51 189.653 105.513 189.646 105.516H189.648Z" fill="url(#paint2_linear_778_8108)"/>
</g>
<defs>
<linearGradient id="paint0_linear_778_8108" x1="84.5378" y1="129.573" x2="74.2208" y2="190.536" gradientUnits="userSpaceOnUse">
<stop stop-color="#0075FF"/>
<stop offset="1" stop-color="#00C3FF"/>
</linearGradient>
<linearGradient id="paint1_linear_778_8108" x1="262.407" y1="27.0048" x2="253.423" y2="88.1779" gradientUnits="userSpaceOnUse">
<stop stop-color="#0075FF"/>
<stop offset="1" stop-color="#00C3FF"/>
</linearGradient>
<linearGradient id="paint2_linear_778_8108" x1="200.031" y1="145.62" x2="209.015" y2="84.4472" gradientUnits="userSpaceOnUse">
<stop stop-color="#0075FF"/>
<stop offset="1" stop-color="#00C3FF"/>
</linearGradient>
</defs>
</svg>
