<svg width="151" height="77" viewBox="0 0 151 77" fill="none" xmlns="http://www.w3.org/2000/svg">
<g clip-path="url(#clip0_778_8067)">
<g clip-path="url(#clip1_778_8067)">
<mask id="mask0_778_8067" style="mask-type:alpha" maskUnits="userSpaceOnUse" x="0" y="0" width="151" height="77">
<path d="M150.5 0.589844H0.5V76.5898H150.5V0.589844Z" fill="#D9D9D9"/>
</mask>
<g mask="url(#mask0_778_8067)">
<path d="M87.6216 28.5907H86.4336L85.2456 25.6387H78.8916L77.7036 28.5907H76.5156L81.4296 16.5847H82.7076L87.6216 28.5907ZM84.9036 24.7027L82.0596 17.6827L79.2336 24.7027H84.9036ZM95.8199 28.5907H94.8839V27.5647C94.1099 28.4107 93.1379 28.8067 91.9319 28.8067C90.4379 28.8067 88.8899 27.7807 88.8899 25.9087C88.8899 24.0187 90.4199 23.0287 91.9319 23.0287C93.1379 23.0287 94.1279 23.4247 94.8839 24.2707V22.5067C94.8839 21.2107 93.8399 20.5087 92.5439 20.5087C91.4639 20.5087 90.6179 20.8867 89.8259 21.7867L89.3039 21.1387C90.2039 20.1667 91.2119 19.6807 92.6519 19.6807C94.4159 19.6807 95.8199 20.5267 95.8199 22.4707V28.5907ZM92.2559 28.0687C93.2999 28.0687 94.2719 27.6727 94.8839 26.8807V24.9727C94.2719 24.1807 93.2999 23.7667 92.2559 23.7667C90.8159 23.7667 89.8799 24.6847 89.8799 25.9267C89.8799 27.1507 90.8159 28.0687 92.2559 28.0687ZM104.163 28.5907H98.6906V16.5847H104.037C106.125 16.5847 107.403 17.8447 107.403 19.6447C107.403 21.1567 106.395 22.1647 105.297 22.3987C106.575 22.5967 107.637 23.9107 107.637 25.3507C107.637 27.2767 106.359 28.5907 104.163 28.5907ZM103.785 21.7867C105.135 21.7867 105.855 20.9587 105.855 19.8607C105.855 18.7807 105.135 17.9167 103.785 17.9167H100.185V21.7867H103.785ZM103.857 27.2587C105.261 27.2587 106.089 26.4667 106.089 25.1887C106.089 24.0907 105.333 23.1187 103.857 23.1187H100.185V27.2587H103.857ZM111.307 26.2327C111.775 26.9887 112.837 27.6007 113.899 27.6007C115.663 27.6007 116.707 26.1787 116.707 24.2527C116.707 22.3267 115.663 20.8867 113.899 20.8867C112.837 20.8867 111.775 21.5347 111.307 22.2907V26.2327ZM111.307 28.5907H109.957V16.5847H111.307V21.2107C112.009 20.2567 113.053 19.6807 114.241 19.6807C116.509 19.6807 118.111 21.4807 118.111 24.2527C118.111 27.0787 116.509 28.8067 114.241 28.8067C113.017 28.8067 111.955 28.1767 111.307 27.2947V28.5907ZM125.963 28.8067C122.363 28.8067 119.573 26.2867 119.573 22.5967C119.573 18.9067 122.363 16.3867 125.963 16.3867C128.609 16.3867 130.139 17.8267 130.985 19.3207L128.789 20.4007C128.285 19.4287 127.205 18.6547 125.963 18.6547C123.785 18.6547 122.201 20.3287 122.201 22.5967C122.201 24.8647 123.785 26.5387 125.963 26.5387C127.205 26.5387 128.285 25.7827 128.789 24.7927L130.985 25.8547C130.121 27.3487 128.609 28.8067 125.963 28.8067ZM136.502 28.8067C133.82 28.8067 131.894 26.9167 131.894 24.2347C131.894 21.5707 133.82 19.6807 136.502 19.6807C138.284 19.6807 139.364 20.4547 139.94 21.2467L138.446 22.6507C138.032 22.0387 137.402 21.7147 136.61 21.7147C135.224 21.7147 134.252 22.7227 134.252 24.2347C134.252 25.7467 135.224 26.7727 136.61 26.7727C137.402 26.7727 138.032 26.4127 138.446 25.8367L139.94 27.2227C139.364 28.0327 138.284 28.8067 136.502 28.8067Z" fill="#FF3600"/>
<path d="M47.8412 47.6568H80.3065C83.3922 47.6568 85.8937 45.1553 85.8937 42.0696C85.8937 38.9839 83.3922 36.4824 80.3065 36.4824H47.8412C44.7554 36.4824 42.2539 38.9839 42.2539 42.0696C42.2539 45.1553 44.7554 47.6568 47.8412 47.6568Z" stroke="#FF3600"/>
<path d="M65.0859 47.6505C65.0859 49.6116 66.6756 51.2014 68.6367 51.2014H84.8694C86.8305 51.2014 88.4203 49.6116 88.4203 47.6505C88.4203 45.6894 86.8305 44.0996 84.8694 44.0996H68.6367C66.6756 44.0996 65.0859 45.6894 65.0859 47.6505Z" fill="#FF3600"/>
<mask id="mask1_778_8067" style="mask-type:luminance" maskUnits="userSpaceOnUse" x="50" y="12" width="19" height="19">
<path d="M68.5746 12.6484H50.8828V30.3402H68.5746V12.6484Z" fill="white"/>
</mask>
<g mask="url(#mask1_778_8067)">
<path fill-rule="evenodd" clip-rule="evenodd" d="M58.4102 14.7187C58.4102 13.5753 59.3371 12.6484 60.4805 12.6484C61.6239 12.6484 62.5508 13.5753 62.5508 14.7187C62.5508 15.8621 61.6239 16.789 60.4805 16.789C59.3371 16.789 58.4102 15.8621 58.4102 14.7187ZM60.4805 13.7777C59.9608 13.7777 59.5395 14.199 59.5395 14.7187C59.5395 15.2384 59.9608 15.6598 60.4805 15.6598C61.0003 15.6598 61.4216 15.2384 61.4216 14.7187C61.4216 14.199 61.0003 13.7777 60.4805 13.7777Z" fill="#FF3600"/>
<path d="M58.4102 20.9534C58.4102 20.6415 58.663 20.3887 58.9748 20.3887H61.9862C62.298 20.3887 62.5508 20.6415 62.5508 20.9534C62.5508 21.2652 62.298 21.518 61.9862 21.518H58.9748C58.663 21.518 58.4102 21.2652 58.4102 20.9534Z" fill="#FF3600"/>
<path fill-rule="evenodd" clip-rule="evenodd" d="M63.1165 17.9179H57.8264C57.2661 16.8667 56.4357 16.4505 55.6977 16.3366C55.3076 16.2764 54.9586 16.302 54.7093 16.3412C54.5836 16.3609 54.4803 16.3846 54.406 16.4041C54.3687 16.4139 54.3385 16.4228 54.3162 16.4296L54.2885 16.4384L54.2792 16.4415L54.2757 16.4427L54.2743 16.4432L54.2731 16.4436L53.7667 16.62L54.4832 19.079C53.8519 19.5747 53.3349 20.2067 52.9718 20.9293H51.9885C51.3779 20.9293 50.8828 21.4243 50.8828 22.035V24.717C50.8828 25.3277 51.3779 25.8227 51.9885 25.8227H52.9679C53.6674 27.2151 54.9453 28.2677 56.487 28.6633C56.5657 29.6022 57.3527 30.3398 58.312 30.3398C59.2122 30.3398 59.9608 29.6901 60.1145 28.8341H61.8135C61.9672 29.6901 62.7157 30.3398 63.616 30.3398C64.6275 30.3398 65.4474 29.5198 65.4474 28.5084V28.3128C67.2959 27.4385 68.5746 25.5566 68.5746 23.376C68.5746 20.3614 66.131 17.9179 63.1165 17.9179ZM64.343 27.7136V27.5286C66.1364 26.9998 67.4453 25.3408 67.4453 23.376C67.4453 20.9851 65.5073 19.0472 63.1165 19.0472H57.0958L56.9501 18.7023C56.5614 17.7826 55.982 17.5231 55.5254 17.4526C55.404 17.4339 55.2868 17.4282 55.1791 17.4305L55.7943 19.5421L55.4498 19.772C54.7437 20.2432 54.1863 20.9181 53.8542 21.7119L53.7091 22.0585H52.0121V24.6935H53.7058L53.8506 25.0407C54.472 26.53 55.899 27.5964 57.585 27.697V27.7136H57.5863V28.5084C57.5863 28.9091 57.9112 29.234 58.312 29.234C58.7127 29.234 59.0376 28.9091 59.0376 28.5084V27.7136H59.0389V27.7048H62.889V27.7136H62.8904V28.5084C62.8904 28.9091 63.2153 29.234 63.616 29.234C64.0168 29.234 64.3417 28.9091 64.3417 28.5084V27.7136H64.343Z" fill="#FF3600"/>
</g>
<mask id="mask2_778_8067" style="mask-type:luminance" maskUnits="userSpaceOnUse" x="92" y="39" width="23" height="24">
<path d="M114.8 39.0254H92.4805V62.3598H114.8V39.0254Z" fill="white"/>
</mask>
<g mask="url(#mask2_778_8067)">
<path fill-rule="evenodd" clip-rule="evenodd" d="M112.708 39.0254C113.863 39.0254 114.801 40.0052 114.801 41.213V60.1722C114.801 61.38 113.863 62.3598 112.708 62.3598H94.573C93.4178 62.3598 92.4805 61.38 92.4805 60.1722V41.213C92.4805 40.0052 93.4178 39.0254 94.573 39.0254H112.708ZM108.581 49.5967L103.488 56.2525C103.228 56.5919 102.744 56.6199 102.45 56.3126L98.758 52.453L93.8755 57.5558V60.1722C93.8755 60.5745 94.1882 60.9014 94.573 60.9014H112.708C113.093 60.9014 113.406 60.5745 113.406 60.1722V54.6405L108.581 49.5967ZM112.708 40.4838H94.573C94.1882 40.4838 93.8755 40.8107 93.8755 41.213V55.4936L98.2648 50.9062C98.5372 50.6214 98.9788 50.6214 99.2512 50.9062L102.885 54.7053L107.978 48.0495C108.238 47.7101 108.722 47.682 109.016 47.9894L113.406 52.5783V41.213C113.406 40.8107 113.093 40.4838 112.708 40.4838ZM101.548 43.4006C102.704 43.4006 103.641 44.38 103.641 45.5882C103.641 46.7964 102.704 47.7758 101.548 47.7758C100.392 47.7758 99.4555 46.7964 99.4555 45.5882C99.4555 44.38 100.392 43.4006 101.548 43.4006Z" fill="#FF3600"/>
</g>
<path d="M41.7539 59.2569V24.8223" stroke="#FF3600" stroke-linecap="round" stroke-dasharray="2 2"/>
<path d="M58.9385 42.0391H24.5039" stroke="#FF3600" stroke-linecap="round" stroke-dasharray="2 2"/>
<mask id="mask3_778_8067" style="mask-type:luminance" maskUnits="userSpaceOnUse" x="8" y="10" width="22" height="59">
<path d="M8.5 10.5898H29.5V68.5898H8.5V10.5898Z" fill="white"/>
</mask>
<g mask="url(#mask3_778_8067)">
<path d="M18.7397 59.8035L21.8108 57.9639C22.0357 57.8305 22.2713 57.8139 22.4534 57.925C22.6382 58.0362 22.7426 58.2529 22.7426 58.5225V59.6006C22.7426 60.048 22.4507 60.5732 22.0759 60.7983L19.0047 62.6379C18.8816 62.713 18.753 62.7491 18.6325 62.7491C18.5362 62.7491 18.4424 62.7241 18.3594 62.674C18.1747 62.5629 18.0703 62.3461 18.0703 62.0766V60.9984C18.0703 60.551 18.3621 60.0258 18.737 59.8007L18.7397 59.8035ZM18.6085 62.0822C18.6085 62.16 18.6272 62.1933 18.6299 62.1989C18.6379 62.2016 18.6754 62.1989 18.7397 62.1627L21.8108 60.3231C22.0196 60.1981 22.2098 59.8563 22.2098 59.6062V58.528C22.2098 58.4502 22.191 58.4169 22.1883 58.4113C22.1883 58.4113 22.183 58.4113 22.1803 58.4113C22.1642 58.4113 22.1294 58.4169 22.0786 58.4502L19.0074 60.2898C18.7986 60.4149 18.6085 60.7566 18.6085 61.0067V62.0849V62.0822Z" fill="#FF3600" stroke="#FF3600" stroke-width="0.5" stroke-miterlimit="10"/>
<path d="M8.56909 23.284L8.58247 23.1145L8.6039 22.6643L8.64406 22.6865C8.76187 22.0946 9.02695 21.4805 9.40181 20.9525L9.3911 20.947L9.59994 20.6941L9.74453 20.519L9.75256 20.5246C9.98016 20.2773 10.2185 20.0772 10.4701 19.9271L25.443 10.9459C26.0053 10.6069 26.5702 10.568 26.9853 10.8375L28.7739 11.9102C29.1996 12.1603 29.4325 12.6688 29.4325 13.3357V55.8631C29.4325 57.133 28.6025 58.6253 27.5422 59.2589L12.5613 68.2345C12.2454 68.4235 11.9348 68.518 11.6456 68.518C11.4287 68.518 11.2252 68.4652 11.0405 68.3568L11.0217 68.3429L9.29738 67.3064L9.16083 67.2258C8.78061 66.9646 8.57176 66.4727 8.57176 65.8419V23.3173C8.57176 23.3173 8.57176 23.2951 8.57176 23.2867H8.56641L8.56909 23.284ZM26.7309 11.3266L26.7041 11.3127C26.4605 11.1543 26.0963 11.196 25.7108 11.4294L10.7326 20.4051C10.5585 20.5079 10.3898 20.6441 10.2265 20.808L11.576 21.6167C11.6322 21.5555 11.6884 21.5 11.7473 21.4444C11.7607 21.4333 11.7741 21.4221 11.7875 21.4082C11.8303 21.3666 11.8759 21.3277 11.9214 21.2888C11.9669 21.2499 12.0151 21.2165 12.0606 21.1804C12.074 21.1693 12.0901 21.1582 12.1035 21.147C12.1677 21.1026 12.232 21.0581 12.2962 21.0192L27.1995 12.088L27.2744 12.0436C27.3387 12.0046 27.403 11.9713 27.4672 11.9407C27.4886 11.9296 27.5101 11.9213 27.5315 11.9129C27.5663 11.8991 27.5984 11.8824 27.6332 11.8685L26.7309 11.3266ZM10.9414 27.7385V66.9424C10.9414 66.9979 10.9414 67.0507 10.9468 67.1035C10.9762 67.4648 11.1021 67.7427 11.3029 67.8733L11.3163 67.8816C11.5653 68.0289 11.9107 67.9817 12.2936 67.7538L27.2718 58.7781C28.15 58.2501 28.8944 56.9163 28.8944 55.8631V13.3357C28.8944 12.8744 28.7578 12.5382 28.5088 12.3909C28.2651 12.2492 27.9224 12.2964 27.5422 12.5215L12.5613 21.5C12.5024 21.5361 12.4435 21.575 12.3846 21.6167C12.3659 21.6306 12.3498 21.6445 12.3311 21.6583C12.2882 21.6917 12.2454 21.725 12.2025 21.7612C12.1891 21.7723 12.1758 21.7834 12.1624 21.7973C12.1115 21.8445 12.0606 21.8918 12.0097 21.9446C12.0097 21.9446 12.0044 21.9501 12.0017 21.9529C11.9428 22.014 11.8866 22.078 11.8304 22.1474C11.335 22.7504 10.9976 23.548 10.9468 24.2316C10.9414 24.2927 10.9387 24.3538 10.9387 24.415V27.7357L10.9414 27.7385ZM10.4755 23.7619C10.5023 23.623 10.5398 23.484 10.5826 23.3479C10.5826 23.3395 10.588 23.334 10.5906 23.3257C10.7326 22.8755 10.9521 22.4336 11.2279 22.0474L10.5558 21.6445L9.8677 21.2304C9.48213 21.7584 9.21438 22.4003 9.13405 22.9783L9.71508 23.3257L10.4728 23.7814C10.4728 23.7814 10.4782 23.7675 10.4782 23.7592L10.4755 23.7619ZM9.10995 65.8447C9.10995 66.2671 9.22509 66.5867 9.43929 66.7478L10.4407 67.3509C10.4353 67.3147 10.43 67.2758 10.4273 67.2369C10.4246 67.2119 10.4219 67.1897 10.4193 67.1647C10.4139 67.0924 10.4086 67.0174 10.4086 66.9424V24.415C10.4086 24.415 10.4086 24.3955 10.4086 24.3872L10.2533 24.2955L9.10995 23.6091V65.8447Z" fill="#FF3600" stroke="#FF3600" stroke-width="0.5" stroke-miterlimit="10"/>
<path d="M17.7439 19.9292L21.6772 17.5755C21.8807 17.4533 22.0922 17.4421 22.2636 17.5422C22.4322 17.6422 22.5286 17.8423 22.5286 18.0841C22.5286 18.4842 22.2769 18.9344 21.9449 19.1345L18.0116 21.4881C17.8992 21.5548 17.7867 21.5882 17.6769 21.5882C17.5886 21.5882 17.5029 21.5659 17.4252 21.5187C17.2565 21.4187 17.1602 21.2186 17.1602 20.9768C17.1602 20.5767 17.4118 20.1265 17.7439 19.9264V19.9292ZM17.6983 21.0296C17.6983 21.0296 17.7251 21.0185 17.7439 21.0074L21.6772 18.6537C21.8432 18.5537 21.9931 18.2841 21.9931 18.0868C21.9931 18.0646 21.9931 18.0479 21.9878 18.0368C21.9771 18.0396 21.961 18.0479 21.9449 18.059L18.0116 20.4127C17.8456 20.5128 17.6957 20.7823 17.6957 20.9796C17.6957 21.0018 17.6957 21.0185 17.701 21.0296H17.6983Z" fill="#FF3600" stroke="#FF3600" stroke-width="0.5" stroke-miterlimit="10"/>
</g>
</g>
</g>
</g>
<defs>
<clipPath id="clip0_778_8067">
<rect width="150" height="76" fill="white" transform="translate(0.5 0.589844)"/>
</clipPath>
<clipPath id="clip1_778_8067">
<rect width="150" height="76" fill="white" transform="translate(0.5 0.589844)"/>
</clipPath>
</defs>
</svg>
