<svg width="59" height="57" viewBox="0 0 59 57" fill="none" xmlns="http://www.w3.org/2000/svg">
<g clip-path="url(#clip0_778_8046)">
<g clip-path="url(#clip1_778_8046)">
<g clip-path="url(#clip2_778_8046)">
<mask id="mask0_778_8046" style="mask-type:luminance" maskUnits="userSpaceOnUse" x="0" y="0" width="59" height="56">
<path d="M40.9601 0.992188L0.34375 24.4421L18.3821 55.6854L58.9985 32.2355L40.9601 0.992188Z" fill="white"/>
</mask>
<g mask="url(#mask0_778_8046)">
<path d="M20.5589 38.5156C20.1293 38.7637 19.5768 38.6183 19.331 38.1928L13.911 28.8051C13.6653 28.3793 13.8157 27.828 14.2453 27.5801C14.6749 27.3321 15.2274 27.4773 15.4732 27.9031L20.8932 37.2908C21.139 37.7164 20.9886 38.2676 20.5589 38.5156Z" fill="#FF3600"/>
<path d="M25.6507 51.4887C24.229 52.3094 22.4118 51.8315 21.6029 50.4306L16.107 40.9112C13.2323 42.0654 9.87667 40.9792 8.30385 38.2551C6.57461 35.2599 7.632 31.4092 10.6548 29.6641L13.8495 27.8196C13.9119 27.7836 13.961 27.7244 13.9934 27.654L20.5104 13.2732C20.8437 12.5338 21.5545 12.0512 22.3626 12.0077C23.1784 11.9597 23.9353 12.3689 24.3375 13.0654L38.1355 36.9642C38.5376 37.6607 38.5134 38.5209 38.064 39.2034C37.6224 39.8816 36.8367 40.2525 36.0377 40.1671L21.7324 38.7675L26.7547 47.4665C27.5681 48.8751 27.0687 50.68 25.6472 51.5009L25.6507 51.4887ZM11.5395 31.1964C9.3759 32.4457 8.62383 35.2015 9.85706 37.3377C11.0903 39.4736 13.8576 40.2081 16.0212 38.9589C16.4508 38.7109 17.0034 38.8561 17.2491 39.2819L23.1606 49.5209C23.4778 50.0704 24.1902 50.2577 24.7523 49.933C25.3148 49.6084 25.5087 48.898 25.1914 48.3485L19.3246 38.1867C19.1772 37.9314 19.1636 37.6193 19.2941 37.3583C19.4201 37.0895 19.6756 36.9005 19.9714 36.8538C20.1231 36.828 20.3073 36.8042 20.5183 36.827L36.2309 38.3735C36.4173 38.3896 36.5122 38.2834 36.5568 38.2163C36.6014 38.1493 36.6582 38.0131 36.5645 37.8508L22.7708 13.9596C22.6771 13.7971 22.5308 13.7783 22.4504 13.7834C22.3701 13.7885 22.2228 13.822 22.1514 13.987L15.6344 28.3678C15.4482 28.785 15.1325 29.122 14.742 29.3475L11.5474 31.1919L11.5395 31.1964Z" fill="#FF3600"/>
<path d="M35.5095 29.9658L33.6661 31.0299C33.2367 31.2781 32.6839 31.1326 32.4383 30.7071L26.9423 21.1877C26.6965 20.762 26.8471 20.2108 27.2767 19.9628L29.1199 18.8985C30.2134 18.2672 31.6134 18.6354 32.2389 19.7189L36.363 26.8622C36.9887 27.9456 36.6075 29.342 35.514 29.9735L35.5095 29.9658ZM33.5537 29.0312L34.6159 28.4177C34.8424 28.2871 34.9304 27.9885 34.7963 27.7565L30.6722 20.6131C30.5381 20.3809 30.2434 20.3034 30.0092 20.4387L28.9468 21.052L33.5492 29.0235L33.5537 29.0312Z" fill="#FF3600"/>
<path d="M42.0602 29.0632C41.8416 29.1895 41.5692 29.2228 41.3103 29.1351C40.8414 28.9723 40.5911 28.4667 40.7584 27.9987C41.4115 26.1357 41.2196 24.0899 40.2322 22.3794C39.2402 20.6613 37.5598 19.4644 35.6154 19.0908C35.1263 19.0016 34.8136 18.5321 34.9071 18.0447C35.0006 17.5573 35.4749 17.2422 35.9637 17.3315C38.4219 17.8007 40.5432 19.3105 41.7942 21.4775C43.0409 23.6366 43.28 26.2333 42.4561 28.5765C42.3793 28.7861 42.2354 28.9517 42.0557 29.0555L42.0602 29.0632Z" fill="#FF3600"/>
<path d="M46.6307 30.8215C46.4196 30.9433 46.1597 30.98 45.905 30.8998C45.4329 30.7494 45.1749 30.2484 45.322 29.7816C46.3718 26.5131 45.9885 22.9267 44.2637 19.9394C42.5434 16.9598 39.6336 14.8423 36.2827 14.1251C35.7971 14.0236 35.4921 13.5496 35.6058 13.0609C35.7115 12.5767 36.1903 12.2694 36.6759 12.3709C40.5169 13.1973 43.8553 15.6245 45.8259 19.0375C47.8008 22.4583 48.2504 26.574 47.0378 30.3183C46.9653 30.5354 46.8179 30.7134 46.6307 30.8215Z" fill="#FF3600"/>
<path d="M51.065 31.338C50.8539 31.4596 50.594 31.4963 50.3396 31.4163C49.8672 31.2657 49.6092 30.7646 49.7641 30.2934C51.1461 26.0489 50.6538 21.3904 48.4108 17.5053C46.1766 13.6356 42.3929 10.8878 38.0259 9.96241C37.5405 9.86095 37.2355 9.38689 37.3413 8.90273C37.447 8.41857 37.9258 8.11126 38.4114 8.21271C43.2715 9.23503 47.4808 12.3048 49.973 16.6033C52.4663 20.9218 53.0124 26.1066 51.4721 30.8346C51.3996 31.0518 51.2525 31.2297 51.065 31.338Z" fill="#FF3600"/>
</g>
</g>
</g>
</g>
<defs>
<clipPath id="clip0_778_8046">
<rect width="59" height="56" fill="white" transform="translate(0 0.589844)"/>
</clipPath>
<clipPath id="clip1_778_8046">
<rect width="59" height="56" fill="white" transform="translate(0 0.589844)"/>
</clipPath>
<clipPath id="clip2_778_8046">
<rect width="59" height="56" fill="white" transform="translate(0 0.589844)"/>
</clipPath>
</defs>
</svg>
