<svg width="21" height="17" viewBox="0 0 21 17" fill="none" xmlns="http://www.w3.org/2000/svg">
<g clip-path="url(#clip0_778_7638)">
<path d="M2.5 16.75C1.95 16.75 1.47917 16.5542 1.0875 16.1625C0.695833 15.7708 0.5 15.3 0.5 14.75V2.75C0.5 2.2 0.695833 1.72917 1.0875 1.3375C1.47917 0.945833 1.95 0.75 2.5 0.75H14.5C15.05 0.75 15.5208 0.945833 15.9125 1.3375C16.3042 1.72917 16.5 2.2 16.5 2.75V7.25L20.5 3.25V14.25L16.5 10.25V14.75C16.5 15.3 16.3042 15.7708 15.9125 16.1625C15.5208 16.5542 15.05 16.75 14.5 16.75H2.5ZM2.5 14.75H14.5V2.75H2.5V14.75Z" fill="white"/>
</g>
<defs>
<clipPath id="clip0_778_7638">
<rect width="20" height="16" fill="white" transform="translate(0.5 0.75)"/>
</clipPath>
</defs>
</svg>
