<svg width="60" height="60" viewBox="0 0 60 60" fill="none" xmlns="http://www.w3.org/2000/svg">
<g clip-path="url(#clip0_778_7588)">
<path d="M29.6535 58.7777C45.7545 58.7777 58.807 45.7252 58.807 29.6242C58.807 13.5232 45.7545 0.470703 29.6535 0.470703C13.5525 0.470703 0.5 13.5232 0.5 29.6242C0.5 45.7252 13.5525 58.7777 29.6535 58.7777Z" fill="#FF3600"/>
<path fill-rule="evenodd" clip-rule="evenodd" d="M27.7383 17.7402H31.186C32.8428 17.7402 34.186 19.0834 34.186 20.7402V27.0061H24.7383V20.7402C24.7383 19.0834 26.0814 17.7402 27.7383 17.7402ZM36.186 20.7402V27.0061H37.1823C38.7701 27.0061 40.0573 28.2933 40.0573 29.8811V38.0214C40.0573 39.6092 38.7701 40.8964 37.1823 40.8964H21.7578C20.17 40.8964 18.8828 39.6092 18.8828 38.0214V29.8811C18.8828 28.2933 20.17 27.0061 21.7578 27.0061H22.7383V20.7402C22.7383 17.9788 24.9769 15.7402 27.7383 15.7402H31.186C33.9474 15.7402 36.186 17.9788 36.186 20.7402ZM21.7578 28.7561C21.1365 28.7561 20.6328 29.2598 20.6328 29.8811V38.0214C20.6328 38.6427 21.1365 39.1464 21.7578 39.1464H37.1823C37.8036 39.1464 38.3073 38.6427 38.3073 38.0214V29.8811C38.3073 29.2598 37.8036 28.7561 37.1823 28.7561H21.7578ZM29.4679 31.5224C28.7974 31.5224 28.2539 32.066 28.2539 32.7365V35.1645C28.2539 35.835 28.7974 36.3785 29.4679 36.3785C30.1384 36.3785 30.682 35.835 30.682 35.1645V32.7365C30.682 32.066 30.1384 31.5224 29.4679 31.5224Z" fill="white"/>
<path d="M34.186 27.0061V30.7561H37.936V27.0061H34.186ZM24.7383 27.0061H20.9883V30.7561H24.7383V27.0061ZM36.186 27.0061H32.436V30.7561H36.186V27.0061ZM22.7383 27.0061V30.7561H26.4883V27.0061H22.7383ZM31.186 13.9902H27.7383V21.4902H31.186V13.9902ZM37.936 20.7402C37.936 17.0123 34.9139 13.9902 31.186 13.9902V21.4902C30.7718 21.4902 30.436 21.1544 30.436 20.7402H37.936ZM37.936 27.0061V20.7402H30.436V27.0061H37.936ZM24.7383 30.7561H34.186V23.2561H24.7383V30.7561ZM20.9883 20.7402V27.0061H28.4883V20.7402H20.9883ZM27.7383 13.9902C24.0104 13.9902 20.9883 17.0123 20.9883 20.7402H28.4883C28.4883 21.1544 28.1525 21.4902 27.7383 21.4902V13.9902ZM39.936 27.0061V20.7402H32.436V27.0061H39.936ZM37.1823 23.2561H36.186V30.7561H37.1823V23.2561ZM43.8073 29.8811C43.8073 26.2222 40.8411 23.2561 37.1823 23.2561V30.7561C36.699 30.7561 36.3073 30.3644 36.3073 29.8811H43.8073ZM43.8073 38.0214V29.8811H36.3073V38.0214H43.8073ZM37.1823 44.6464C40.8412 44.6464 43.8073 41.6803 43.8073 38.0214H36.3073C36.3073 37.5382 36.699 37.1464 37.1823 37.1464V44.6464ZM21.7578 44.6464H37.1823V37.1464H21.7578V44.6464ZM15.1328 38.0214C15.1328 41.6803 18.0989 44.6464 21.7578 44.6464V37.1464C22.2411 37.1464 22.6328 37.5382 22.6328 38.0214H15.1328ZM15.1328 29.8811V38.0214H22.6328V29.8811H15.1328ZM21.7578 23.2561C18.0989 23.2561 15.1328 26.2223 15.1328 29.8811H22.6328C22.6328 30.3644 22.2411 30.7561 21.7578 30.7561V23.2561ZM22.7383 23.2561H21.7578V30.7561H22.7383V23.2561ZM18.9883 20.7402V27.0061H26.4883V20.7402H18.9883ZM27.7383 11.9902C22.9058 11.9902 18.9883 15.9077 18.9883 20.7402H26.4883C26.4883 20.0499 27.0479 19.4902 27.7383 19.4902V11.9902ZM31.186 11.9902H27.7383V19.4902H31.186V11.9902ZM39.936 20.7402C39.936 15.9077 36.0185 11.9902 31.186 11.9902V19.4902C31.8763 19.4902 32.436 20.0499 32.436 20.7402H39.936ZM24.3828 29.8811C24.3828 31.3309 23.2076 32.5061 21.7578 32.5061V25.0061C19.0654 25.0061 16.8828 27.1888 16.8828 29.8811H24.3828ZM24.3828 38.0214V29.8811H16.8828V38.0214H24.3828ZM21.7578 35.3964C23.2076 35.3964 24.3828 36.5717 24.3828 38.0214H16.8828C16.8828 40.7138 19.0654 42.8964 21.7578 42.8964V35.3964ZM37.1823 35.3964H21.7578V42.8964H37.1823V35.3964ZM34.5573 38.0214C34.5573 36.5717 35.7325 35.3964 37.1823 35.3964V42.8964C39.8747 42.8964 42.0573 40.7138 42.0573 38.0214H34.5573ZM34.5573 29.8811V38.0214H42.0573V29.8811H34.5573ZM37.1823 32.5061C35.7325 32.5061 34.5573 31.3309 34.5573 29.8811H42.0573C42.0573 27.1887 39.8747 25.0061 37.1823 25.0061V32.5061ZM21.7578 32.5061H37.1823V25.0061H21.7578V32.5061ZM32.0039 32.7365C32.0039 34.137 30.8685 35.2724 29.4679 35.2724V27.7724C26.7264 27.7724 24.5039 29.9949 24.5039 32.7365H32.0039ZM32.0039 35.1645V32.7365H24.5039V35.1645H32.0039ZM29.4679 32.6285C30.8685 32.6285 32.0039 33.7639 32.0039 35.1645H24.5039C24.5039 37.9061 26.7264 40.1285 29.4679 40.1285V32.6285ZM26.932 35.1645C26.932 33.7639 28.0674 32.6285 29.4679 32.6285V40.1285C32.2095 40.1285 34.432 37.9061 34.432 35.1645H26.932ZM26.932 32.7365V35.1645H34.432V32.7365H26.932ZM29.4679 35.2724C28.0674 35.2724 26.932 34.137 26.932 32.7365H34.432C34.432 29.9949 32.2095 27.7724 29.4679 27.7724V35.2724Z" fill="white" fill-opacity="0.3"/>
<path fill-rule="evenodd" clip-rule="evenodd" d="M27.7383 17.7402H31.186C32.8428 17.7402 34.186 19.0834 34.186 20.7402V27.0061H24.7383V20.7402C24.7383 19.0834 26.0814 17.7402 27.7383 17.7402ZM36.186 20.7402V27.0061H37.1823C38.7701 27.0061 40.0573 28.2933 40.0573 29.8811V38.0214C40.0573 39.6092 38.7701 40.8964 37.1823 40.8964H21.7578C20.17 40.8964 18.8828 39.6092 18.8828 38.0214V29.8811C18.8828 28.2933 20.17 27.0061 21.7578 27.0061H22.7383V20.7402C22.7383 17.9788 24.9769 15.7402 27.7383 15.7402H31.186C33.9474 15.7402 36.186 17.9788 36.186 20.7402ZM21.7578 28.7561C21.1365 28.7561 20.6328 29.2598 20.6328 29.8811V38.0214C20.6328 38.6427 21.1365 39.1464 21.7578 39.1464H37.1823C37.8036 39.1464 38.3073 38.6427 38.3073 38.0214V29.8811C38.3073 29.2598 37.8036 28.7561 37.1823 28.7561H21.7578ZM29.4679 31.5224C28.7974 31.5224 28.2539 32.066 28.2539 32.7365V35.1645C28.2539 35.835 28.7974 36.3785 29.4679 36.3785C30.1384 36.3785 30.682 35.835 30.682 35.1645V32.7365C30.682 32.066 30.1384 31.5224 29.4679 31.5224Z" fill="white"/>
</g>
<defs>
<clipPath id="clip0_778_7588">
<rect width="59" height="59" fill="white" transform="translate(0.5 0.470703)"/>
</clipPath>
</defs>
</svg>
