<svg width="61" height="61" viewBox="0 0 61 61" fill="none" xmlns="http://www.w3.org/2000/svg">
<g clip-path="url(#clip0_778_7533)">
<path d="M30.4267 60.8534C47.2309 60.8534 60.8534 47.2309 60.8534 30.4267C60.8534 13.6225 47.2309 0 30.4267 0C13.6225 0 0 13.6225 0 30.4267C0 47.2309 13.6225 60.8534 30.4267 60.8534Z" fill="#EE4B24"/>
<path d="M30.4236 31.1503V24.1128C30.4236 23.1412 29.6668 22.3535 28.7332 22.3535C27.7996 22.3535 27.0428 23.1412 27.0428 24.1128V32.9097C25.1757 32.9097 23.6621 34.4851 23.6621 36.4284C23.6621 40.3151 26.6893 43.4659 30.4236 43.4659H31.2688C35.4698 43.4659 38.8754 39.9212 38.8754 35.5487V34.0481C38.8754 32.4477 37.6289 31.1503 36.0913 31.1503H30.4236Z" fill="#EE4B24"/>
<path d="M27.0427 35.5499V32.9109M27.0427 32.9109V24.114C27.0427 23.1424 27.7995 22.3547 28.7331 22.3547C29.6667 22.3547 30.4235 23.1424 30.4235 24.114V31.1515H36.0912C37.6288 31.1515 38.8753 32.4489 38.8753 34.0493V35.5499C38.8753 39.9224 35.4697 43.4671 31.2687 43.4671H30.4235C26.6892 43.4671 23.662 40.3163 23.662 36.4296C23.662 34.4863 25.1756 32.9109 27.0427 32.9109ZM32.959 27.6328H36.3398C38.6737 27.6328 40.5657 25.6635 40.5657 23.2344C40.5657 20.8052 38.6737 18.8359 36.3398 18.8359H24.5072C22.1733 18.8359 20.2812 20.8052 20.2812 23.2344C20.2812 25.6635 22.1733 27.6328 24.5072 27.6328" stroke="white" stroke-opacity="0.3" stroke-width="8.5" stroke-linecap="round" stroke-linejoin="round"/>
<path d="M27.0427 35.5499V32.9109M27.0427 32.9109V24.114C27.0427 23.1424 27.7995 22.3547 28.7331 22.3547C29.6667 22.3547 30.4235 23.1424 30.4235 24.114V31.1515H36.0912C37.6288 31.1515 38.8753 32.4489 38.8753 34.0493V35.5499C38.8753 39.9224 35.4697 43.4671 31.2687 43.4671H30.4235C26.6892 43.4671 23.662 40.3163 23.662 36.4296C23.662 34.4863 25.1756 32.9109 27.0427 32.9109ZM34.3151 27.6328H36.3398C38.6737 27.6328 40.5657 25.6635 40.5657 23.2344C40.5657 20.8052 38.6737 18.8359 36.3398 18.8359H24.5072C22.1733 18.8359 20.2812 20.8052 20.2812 23.2344C20.2812 25.6635 22.1733 27.6328 24.5072 27.6328" stroke="white" stroke-width="1.75" stroke-linecap="round" stroke-linejoin="round"/>
</g>
<defs>
<clipPath id="clip0_778_7533">
<rect width="61" height="61" fill="white"/>
</clipPath>
</defs>
</svg>
