<svg width="57" height="57" viewBox="0 0 57 57" fill="none" xmlns="http://www.w3.org/2000/svg">
<g clip-path="url(#clip0_778_7359)">
<path d="M28.3366 56.6732C43.9865 56.6732 56.6732 43.9865 56.6732 28.3366C56.6732 12.6867 43.9865 0 28.3366 0C12.6867 0 0 12.6867 0 28.3366C0 43.9865 12.6867 56.6732 28.3366 56.6732Z" fill="#EE4B24"/>
<path d="M32.5227 25.9078L37.7178 23.6814M28.812 17.002V23.6814M28.812 23.6814C31.2712 23.6814 33.2649 25.675 33.2649 28.1343C33.2649 30.5936 31.2712 32.5872 28.812 32.5872C26.3527 32.5872 24.3591 30.5936 24.3591 28.1343C24.3591 25.675 26.3527 23.6814 28.812 23.6814ZM31.7806 31.1029L36.2335 35.5558M28.812 38.5244C23.0737 38.5244 18.4219 33.8726 18.4219 28.1343C18.4219 22.396 23.0737 17.7442 28.812 17.7442C34.5503 17.7442 39.2021 22.396 39.2021 28.1343C39.2021 33.8726 34.5503 38.5244 28.812 38.5244Z" stroke="white" stroke-opacity="0.3" stroke-width="10.5" stroke-linejoin="round"/>
<path d="M32.5227 25.9078L37.7178 23.6814M28.812 17.002V23.6814M28.812 23.6814C31.2712 23.6814 33.2649 25.675 33.2649 28.1343C33.2649 30.5936 31.2712 32.5872 28.812 32.5872C26.3527 32.5872 24.3591 30.5936 24.3591 28.1343C24.3591 25.675 26.3527 23.6814 28.812 23.6814ZM31.7806 31.1029L36.2335 35.5558M28.812 38.5244C23.0737 38.5244 18.4219 33.8726 18.4219 28.1343C18.4219 22.396 23.0737 17.7442 28.812 17.7442C34.5503 17.7442 39.2021 22.396 39.2021 28.1343C39.2021 33.8726 34.5503 38.5244 28.812 38.5244Z" stroke="white" stroke-width="1.75" stroke-linejoin="round"/>
</g>
<defs>
<clipPath id="clip0_778_7359">
<rect width="57" height="57" fill="white"/>
</clipPath>
</defs>
</svg>
