<svg width="26" height="27" viewBox="0 0 26 27" fill="none" xmlns="http://www.w3.org/2000/svg">
<path d="M22.6127 23.6935V15.9799C22.6127 12.1889 21.8338 9.29297 17.6128 9.29297C15.5777 9.29297 14.2209 10.4513 13.6682 11.557H13.6179V9.63521H9.62305V23.6935H13.7938V16.717C13.7938 14.8742 14.1204 13.1103 16.2812 13.1103C18.4168 13.1103 18.4419 15.1901 18.4419 16.8223V23.6672H22.6127V23.6935Z" fill="#3B3B3B"/>
<path d="M2.83789 9.63477H7.00865V23.693H2.83789V9.63477Z" fill="#3B3B3B"/>
<path d="M4.92373 2.63281C3.5921 2.63281 2.51172 3.76485 2.51172 5.16014C2.51172 6.55544 3.5921 7.7138 4.92373 7.7138C6.25535 7.7138 7.33573 6.55544 7.33573 5.16014C7.33573 3.76485 6.25535 2.63281 4.92373 2.63281Z" fill="#3B3B3B"/>
</svg>
