<svg width="24" height="24" viewBox="0 0 24 24" fill="none" xmlns="http://www.w3.org/2000/svg">
<path d="M22.9012 6.17021C22.6395 5.18479 21.8684 4.40871 20.8894 4.14533C19.1148 3.66675 11.9989 3.66675 11.9989 3.66675C11.9989 3.66675 4.88305 3.66675 3.10843 4.14533C2.12939 4.40875 1.3583 5.18479 1.09659 6.17021C0.621094 7.95633 0.621094 11.6829 0.621094 11.6829C0.621094 11.6829 0.621094 15.4095 1.09659 17.1956C1.3583 18.181 2.12939 18.9248 3.10843 19.1882C4.88305 19.6667 11.9989 19.6667 11.9989 19.6667C11.9989 19.6667 19.1147 19.6667 20.8894 19.1882C21.8684 18.9248 22.6395 18.181 22.9012 17.1956C23.3767 15.4095 23.3767 11.6829 23.3767 11.6829C23.3767 11.6829 23.3767 7.95633 22.9012 6.17021ZM9.6716 15.0664V8.29946L15.6191 11.683L9.6716 15.0664Z" fill="#FF3600"/>
</svg>
